<?xml version="1.0" encoding="UTF-8" standalone="no"?>
<!DOCTYPE svg PUBLIC "-//W3C//DTD SVG 1.1//EN"
 "http://www.w3.org/Graphics/SVG/1.1/DTD/svg11.dtd">
<!-- Generated by graphviz version 2.42.4 (0)
 -->
<!-- Title: G Pages: 1 -->
<svg width="1234pt" height="193pt"
 viewBox="0.00 0.00 1234.09 193.00" xmlns="http://www.w3.org/2000/svg" xmlns:xlink="http://www.w3.org/1999/xlink">
<g id="graph0" class="graph" transform="scale(1 1) rotate(0) translate(18 175)">
<title>G</title>
<polygon fill="white" stroke="transparent" points="-18,18 -18,-175 1216.09,-175 1216.09,18 -18,18"/>
<!-- q -->
<g id="node1" class="node">
<title>q</title>
<path fill="#e7f0ff" stroke="#4c68b2" d="M110,-70C110,-70 12,-70 12,-70 6,-70 0,-64 0,-58 0,-58 0,-32 0,-32 0,-26 6,-20 12,-20 12,-20 110,-20 110,-20 116,-20 122,-26 122,-32 122,-32 122,-58 122,-58 122,-64 116,-70 110,-70"/>
<text text-anchor="middle" x="61" y="-41.9" font-family="Noto Sans CJK SC" font-size="12.00">用户自然语言问题</text>
</g>
<!-- schema -->
<g id="node2" class="node">
<title>schema</title>
<path fill="#f4f7ff" stroke="#4c68b2" d="M273,-70C273,-70 175,-70 175,-70 169,-70 163,-64 163,-58 163,-58 163,-32 163,-32 163,-26 169,-20 175,-20 175,-20 273,-20 273,-20 279,-20 285,-26 285,-32 285,-32 285,-58 285,-58 285,-64 279,-70 273,-70"/>
<text text-anchor="middle" x="224" y="-48.4" font-family="Noto Sans CJK SC" font-size="12.00">读取字段结构</text>
<text text-anchor="middle" x="224" y="-35.4" font-family="Noto Sans CJK SC" font-size="12.00">名称 / 类型 / 缺失率</text>
</g>
<!-- q&#45;&gt;schema -->
<g id="edge1" class="edge">
<title>q&#45;&gt;schema</title>
<path fill="none" stroke="#566eaf" stroke-width="1.4" d="M122.41,-45C132.93,-45 143.94,-45 154.66,-45"/>
<polygon fill="#566eaf" stroke="#566eaf" stroke-width="1.4" points="154.79,-47.8 162.79,-45 154.79,-42.2 154.79,-47.8"/>
</g>
<!-- plan -->
<g id="node3" class="node">
<title>plan</title>
<path fill="#f4f7ff" stroke="#4c68b2" d="M441,-70C441,-70 338,-70 338,-70 332,-70 326,-64 326,-58 326,-58 326,-32 326,-32 326,-26 332,-20 338,-20 338,-20 441,-20 441,-20 447,-20 453,-26 453,-32 453,-32 453,-58 453,-58 453,-64 447,-70 441,-70"/>
<text text-anchor="middle" x="389.5" y="-48.4" font-family="Noto Sans CJK SC" font-size="12.00">规则引擎或大模型</text>
<text text-anchor="middle" x="389.5" y="-35.4" font-family="Noto Sans CJK SC" font-size="12.00">生成 JSON 分析计划</text>
</g>
<!-- schema&#45;&gt;plan -->
<g id="edge2" class="edge">
<title>schema&#45;&gt;plan</title>
<path fill="none" stroke="#566eaf" stroke-width="1.4" d="M285.42,-45C295.93,-45 306.94,-45 317.7,-45"/>
<polygon fill="#566eaf" stroke="#566eaf" stroke-width="1.4" points="317.87,-47.8 325.87,-45 317.87,-42.2 317.87,-47.8"/>
</g>
<!-- validate -->
<g id="node4" class="node">
<title>validate</title>
<path fill="#fff2d8" stroke="#c58a24" d="M570.5,-66.72C570.5,-66.72 505.5,-48.28 505.5,-48.28 499.73,-46.64 499.73,-43.36 505.5,-41.72 505.5,-41.72 570.5,-23.28 570.5,-23.28 576.27,-21.64 587.82,-21.64 593.59,-23.28 593.59,-23.28 658.59,-41.72 658.59,-41.72 664.36,-43.36 664.36,-46.64 658.59,-48.28 658.59,-48.28 593.59,-66.72 593.59,-66.72 587.82,-68.36 576.27,-68.36 570.5,-66.72"/>
<text text-anchor="middle" x="582.05" y="-41.9" font-family="Noto Sans CJK SC" font-size="12.00">白名单与参数校验</text>
</g>
<!-- plan&#45;&gt;validate -->
<g id="edge3" class="edge">
<title>plan&#45;&gt;validate</title>
<path fill="none" stroke="#566eaf" stroke-width="1.4" d="M453.16,-45C463.63,-45 474.7,-45 485.77,-45"/>
<polygon fill="#566eaf" stroke="#566eaf" stroke-width="1.4" points="485.83,-47.8 493.83,-45 485.83,-42.2 485.83,-47.8"/>
</g>
<!-- execute -->
<g id="node5" class="node">
<title>execute</title>
<path fill="#f4f7ff" stroke="#4c68b2" d="M860.09,-125C860.09,-125 752.09,-125 752.09,-125 746.09,-125 740.09,-119 740.09,-113 740.09,-113 740.09,-87 740.09,-87 740.09,-81 746.09,-75 752.09,-75 752.09,-75 860.09,-75 860.09,-75 866.09,-75 872.09,-81 872.09,-87 872.09,-87 872.09,-113 872.09,-113 872.09,-119 866.09,-125 860.09,-125"/>
<text text-anchor="middle" x="806.09" y="-103.4" font-family="Noto Sans CJK SC" font-size="12.00">Pandas / Scikit&#45;learn</text>
<text text-anchor="middle" x="806.09" y="-90.4" font-family="Noto Sans CJK SC" font-size="12.00">执行真实计算</text>
</g>
<!-- validate&#45;&gt;execute -->
<g id="edge4" class="edge">
<title>validate&#45;&gt;execute</title>
<path fill="none" stroke="#566eaf" stroke-width="1.4" d="M629.59,-56.53C659.26,-63.88 698.33,-73.56 732.07,-81.91"/>
<polygon fill="#566eaf" stroke="#566eaf" stroke-width="1.4" points="731.64,-84.69 740.08,-83.9 732.99,-79.26 731.64,-84.69"/>
<text text-anchor="middle" x="705.09" y="-80" font-family="Noto Sans CJK SC" font-size="10.00">通过</text>
</g>
<!-- reject -->
<g id="node9" class="node">
<title>reject</title>
<path fill="#ffe8e8" stroke="#c65a5a" d="M856.59,-50C856.59,-50 755.59,-50 755.59,-50 749.59,-50 743.59,-44 743.59,-38 743.59,-38 743.59,-12 743.59,-12 743.59,-6 749.59,0 755.59,0 755.59,0 856.59,0 856.59,0 862.59,0 868.59,-6 868.59,-12 868.59,-12 868.59,-38 868.59,-38 868.59,-44 862.59,-50 856.59,-50"/>
<text text-anchor="middle" x="806.09" y="-21.9" font-family="Noto Sans CJK SC" font-size="12.00">拒绝执行并返回错误</text>
</g>
<!-- validate&#45;&gt;reject -->
<g id="edge5" class="edge">
<title>validate&#45;&gt;reject</title>
<path fill="none" stroke="#566eaf" stroke-width="1.4" d="M649.37,-39.03C676.47,-36.59 707.83,-33.76 735.28,-31.29"/>
<polygon fill="#566eaf" stroke="#566eaf" stroke-width="1.4" points="735.57,-34.07 743.29,-30.57 735.07,-28.5 735.57,-34.07"/>
<text text-anchor="middle" x="705.09" y="-38" font-family="Noto Sans CJK SC" font-size="10.00">不通过</text>
</g>
<!-- chart -->
<g id="node6" class="node">
<title>chart</title>
<path fill="#f4f7ff" stroke="#4c68b2" d="M1023.09,-157C1023.09,-157 925.09,-157 925.09,-157 919.09,-157 913.09,-151 913.09,-145 913.09,-145 913.09,-119 913.09,-119 913.09,-113 919.09,-107 925.09,-107 925.09,-107 1023.09,-107 1023.09,-107 1029.09,-107 1035.09,-113 1035.09,-119 1035.09,-119 1035.09,-145 1035.09,-145 1035.09,-151 1029.09,-157 1023.09,-157"/>
<text text-anchor="middle" x="974.09" y="-135.4" font-family="Noto Sans CJK SC" font-size="12.00">Plotly.js</text>
<text text-anchor="middle" x="974.09" y="-122.4" font-family="Noto Sans CJK SC" font-size="12.00">生成交互图表</text>
</g>
<!-- execute&#45;&gt;chart -->
<g id="edge6" class="edge">
<title>execute&#45;&gt;chart</title>
<path fill="none" stroke="#566eaf" stroke-width="1.4" d="M872.22,-112.56C882.93,-114.62 894.06,-116.77 904.85,-118.85"/>
<polygon fill="#566eaf" stroke="#566eaf" stroke-width="1.4" points="904.63,-121.65 913.02,-120.42 905.69,-116.16 904.63,-121.65"/>
</g>
<!-- explain -->
<g id="node7" class="node">
<title>explain</title>
<path fill="#f4f7ff" stroke="#4c68b2" d="M1023.09,-82C1023.09,-82 925.09,-82 925.09,-82 919.09,-82 913.09,-76 913.09,-70 913.09,-70 913.09,-44 913.09,-44 913.09,-38 919.09,-32 925.09,-32 925.09,-32 1023.09,-32 1023.09,-32 1029.09,-32 1035.09,-38 1035.09,-44 1035.09,-44 1035.09,-70 1035.09,-70 1035.09,-76 1029.09,-82 1023.09,-82"/>
<text text-anchor="middle" x="974.09" y="-60.4" font-family="Noto Sans CJK SC" font-size="12.00">大模型或规则模板</text>
<text text-anchor="middle" x="974.09" y="-47.4" font-family="Noto Sans CJK SC" font-size="12.00">基于真实结果解释</text>
</g>
<!-- execute&#45;&gt;explain -->
<g id="edge7" class="edge">
<title>execute&#45;&gt;explain</title>
<path fill="none" stroke="#566eaf" stroke-width="1.4" d="M872.22,-83.13C883.04,-80.33 894.28,-77.41 905.17,-74.59"/>
<polygon fill="#566eaf" stroke="#566eaf" stroke-width="1.4" points="905.98,-77.28 913.02,-72.56 904.57,-71.86 905.98,-77.28"/>
</g>
<!-- save -->
<g id="node8" class="node">
<title>save</title>
<path fill="#e8f8ee" stroke="#469a67" d="M1186.09,-119C1186.09,-119 1088.09,-119 1088.09,-119 1082.09,-119 1076.09,-113 1076.09,-107 1076.09,-107 1076.09,-81 1076.09,-81 1076.09,-75 1082.09,-69 1088.09,-69 1088.09,-69 1186.09,-69 1186.09,-69 1192.09,-69 1198.09,-75 1198.09,-81 1198.09,-81 1198.09,-107 1198.09,-107 1198.09,-113 1192.09,-119 1186.09,-119"/>
<text text-anchor="middle" x="1137.09" y="-97.4" font-family="Noto Sans CJK SC" font-size="12.00">保存分析任务</text>
<text text-anchor="middle" x="1137.09" y="-84.4" font-family="Noto Sans CJK SC" font-size="12.00">对话与报告记录</text>
</g>
<!-- chart&#45;&gt;save -->
<g id="edge8" class="edge">
<title>chart&#45;&gt;save</title>
<path fill="none" stroke="#566eaf" stroke-width="1.4" d="M1035.5,-117.74C1046.13,-115.23 1057.25,-112.61 1068.07,-110.05"/>
<polygon fill="#566eaf" stroke="#566eaf" stroke-width="1.4" points="1068.74,-112.77 1075.88,-108.21 1067.45,-107.32 1068.74,-112.77"/>
</g>
<!-- explain&#45;&gt;save -->
<g id="edge9" class="edge">
<title>explain&#45;&gt;save</title>
<path fill="none" stroke="#566eaf" stroke-width="1.4" d="M1035.5,-70.88C1046.13,-73.32 1057.25,-75.88 1068.07,-78.37"/>
<polygon fill="#566eaf" stroke="#566eaf" stroke-width="1.4" points="1067.45,-81.1 1075.88,-80.16 1068.71,-75.64 1067.45,-81.1"/>
</g>
</g>
</svg>
