<?xml version="1.0" encoding="UTF-8" standalone="no"?>
<!DOCTYPE svg PUBLIC "-//W3C//DTD SVG 1.1//EN"
 "http://www.w3.org/Graphics/SVG/1.1/DTD/svg11.dtd">
<!-- Generated by graphviz version 2.42.4 (0)
 -->
<!-- Title: G Pages: 1 -->
<svg width="704pt" height="285pt"
 viewBox="0.00 0.00 704.20 285.45" xmlns="http://www.w3.org/2000/svg" xmlns:xlink="http://www.w3.org/1999/xlink">
<g id="graph0" class="graph" transform="scale(1 1) rotate(0) translate(21.6 263.85)">
<title>G</title>
<polygon fill="white" stroke="transparent" points="-21.6,21.6 -21.6,-263.85 682.6,-263.85 682.6,21.6 -21.6,21.6"/>
<!-- client -->
<g id="node1" class="node">
<title>client</title>
<polygon fill="#f5f8ff" stroke="#5069b1" points="149,-135 4,-135 0,-131 0,-91 145,-91 149,-95 149,-135"/>
<polyline fill="none" stroke="#5069b1" points="145,-131 0,-131 "/>
<polyline fill="none" stroke="#5069b1" points="145,-131 145,-91 "/>
<polyline fill="none" stroke="#5069b1" points="145,-131 149,-135 "/>
<text text-anchor="middle" x="74.5" y="-116.4" font-family="Noto Sans CJK SC" font-size="12.00">客户端</text>
<text text-anchor="middle" x="74.5" y="-103.4" font-family="Noto Sans CJK SC" font-size="12.00">Chrome / Edge 浏览器</text>
</g>
<!-- server -->
<g id="node2" class="node">
<title>server</title>
<polygon fill="#f5f8ff" stroke="#5069b1" points="402,-141.5 238,-141.5 234,-137.5 234,-84.5 398,-84.5 402,-88.5 402,-141.5"/>
<polyline fill="none" stroke="#5069b1" points="398,-137.5 234,-137.5 "/>
<polyline fill="none" stroke="#5069b1" points="398,-137.5 398,-84.5 "/>
<polyline fill="none" stroke="#5069b1" points="398,-137.5 402,-141.5 "/>
<text text-anchor="middle" x="318" y="-122.9" font-family="Noto Sans CJK SC" font-size="12.00">应用服务器</text>
<text text-anchor="middle" x="318" y="-109.9" font-family="Noto Sans CJK SC" font-size="12.00">Python 3.10/3.11</text>
<text text-anchor="middle" x="318" y="-96.9" font-family="Noto Sans CJK SC" font-size="12.00">Flask + Gunicorn（可选）</text>
</g>
<!-- client&#45;&gt;server -->
<g id="edge1" class="edge">
<title>client&#45;&gt;server</title>
<path fill="none" stroke="#5e73ae" stroke-width="1.3" d="M149.27,-113C173.43,-113 200.56,-113 225.84,-113"/>
<polygon fill="#5e73ae" stroke="#5e73ae" stroke-width="1.3" points="225.98,-115.8 233.98,-113 225.98,-110.2 225.98,-115.8"/>
<text text-anchor="middle" x="191.5" y="-116.8" font-family="Times,serif" font-size="14.00">HTTP</text>
</g>
<!-- db -->
<g id="node3" class="node">
<title>db</title>
<path fill="#f5f8ff" stroke="#5069b1" d="M643,-236.96C643,-240.02 620.81,-242.5 593.5,-242.5 566.19,-242.5 544,-240.02 544,-236.96 544,-236.96 544,-187.04 544,-187.04 544,-183.98 566.19,-181.5 593.5,-181.5 620.81,-181.5 643,-183.98 643,-187.04 643,-187.04 643,-236.96 643,-236.96"/>
<path fill="none" stroke="#5069b1" d="M643,-236.96C643,-233.9 620.81,-231.41 593.5,-231.41 566.19,-231.41 544,-233.9 544,-236.96"/>
<text text-anchor="middle" x="593.5" y="-215.4" font-family="Noto Sans CJK SC" font-size="12.00">数据库服务器</text>
<text text-anchor="middle" x="593.5" y="-202.4" font-family="Noto Sans CJK SC" font-size="12.00">MySQL 5.7</text>
</g>
<!-- server&#45;&gt;db -->
<g id="edge2" class="edge">
<title>server&#45;&gt;db</title>
<path fill="none" stroke="#5e73ae" stroke-width="1.3" d="M397.74,-141.5C441.98,-157.51 496.15,-177.12 536.13,-191.59"/>
<polygon fill="#5e73ae" stroke="#5e73ae" stroke-width="1.3" points="535.45,-194.33 543.92,-194.42 537.35,-189.06 535.45,-194.33"/>
<text text-anchor="middle" x="464" y="-180.8" font-family="Times,serif" font-size="14.00">PyMySQL</text>
</g>
<!-- storage -->
<g id="node4" class="node">
<title>storage</title>
<polygon fill="#f5f8ff" stroke="#5069b1" points="658.5,-141.5 655.5,-145.5 634.5,-145.5 631.5,-141.5 528.5,-141.5 528.5,-84.5 658.5,-84.5 658.5,-141.5"/>
<text text-anchor="middle" x="593.5" y="-122.9" font-family="Noto Sans CJK SC" font-size="12.00">本地文件目录</text>
<text text-anchor="middle" x="593.5" y="-109.9" font-family="Noto Sans CJK SC" font-size="12.00">storage/uploads</text>
<text text-anchor="middle" x="593.5" y="-96.9" font-family="Noto Sans CJK SC" font-size="12.00">storage/processed</text>
</g>
<!-- server&#45;&gt;storage -->
<g id="edge3" class="edge">
<title>server&#45;&gt;storage</title>
<path fill="none" stroke="#5e73ae" stroke-width="1.3" d="M410.34,-113C446.03,-113 486.36,-113 519.99,-113"/>
<polygon fill="#5e73ae" stroke="#5e73ae" stroke-width="1.3" points="410.17,-110.2 402.17,-113 410.17,-115.8 410.17,-110.2"/>
<polygon fill="#5e73ae" stroke="#5e73ae" stroke-width="1.3" points="520.39,-115.8 528.39,-113 520.39,-110.2 520.39,-115.8"/>
<text text-anchor="middle" x="464" y="-116.8" font-family="Times,serif" font-size="14.00">文件读写</text>
</g>
<!-- llm -->
<g id="node5" class="node">
<title>llm</title>
<polygon fill="#f5f8ff" stroke="#5069b1" points="661,-44 526,-44 526,0 661,0 661,-44"/>
<text text-anchor="middle" x="593.5" y="-25.4" font-family="Noto Sans CJK SC" font-size="12.00">大模型服务（可选）</text>
<text text-anchor="middle" x="593.5" y="-12.4" font-family="Noto Sans CJK SC" font-size="12.00">兼容 OpenAI 接口</text>
</g>
<!-- server&#45;&gt;llm -->
<g id="edge4" class="edge">
<title>server&#45;&gt;llm</title>
<path fill="none" stroke="#5e73ae" stroke-width="1.3" d="M410.18,-82.66C445.31,-70.97 484.96,-57.78 518.3,-46.69"/>
<polygon fill="#5e73ae" stroke="#5e73ae" stroke-width="1.3" points="408.88,-80.14 402.17,-85.33 410.65,-85.46 408.88,-80.14"/>
<polygon fill="#5e73ae" stroke="#5e73ae" stroke-width="1.3" points="519.48,-49.25 526.19,-44.06 517.71,-43.93 519.48,-49.25"/>
<text text-anchor="middle" x="464" y="-79.8" font-family="Times,serif" font-size="14.00">HTTPS API</text>
</g>
</g>
</svg>
