<?xml version="1.0" encoding="UTF-8" standalone="no"?>
<!DOCTYPE svg PUBLIC "-//W3C//DTD SVG 1.1//EN"
 "http://www.w3.org/Graphics/SVG/1.1/DTD/svg11.dtd">
<!-- Generated by graphviz version 2.42.4 (0)
 -->
<!-- Title: ER Pages: 1 -->
<svg width="1049pt" height="624pt"
 viewBox="0.00 0.00 1049.00 624.00" xmlns="http://www.w3.org/2000/svg" xmlns:xlink="http://www.w3.org/1999/xlink">
<g id="graph0" class="graph" transform="scale(1 1) rotate(0) translate(18 606)">
<title>ER</title>
<polygon fill="white" stroke="transparent" points="-18,18 -18,-606 1031,-606 1031,18 -18,18"/>
<!-- users -->
<g id="node1" class="node">
<title>users</title>
<path fill="#e8eeff" stroke="#526bb5" d="M12,-240.5C12,-240.5 124,-240.5 124,-240.5 130,-240.5 136,-246.5 136,-252.5 136,-252.5 136,-296.5 136,-296.5 136,-302.5 130,-308.5 124,-308.5 124,-308.5 12,-308.5 12,-308.5 6,-308.5 0,-302.5 0,-296.5 0,-296.5 0,-252.5 0,-252.5 0,-246.5 6,-240.5 12,-240.5"/>
<text text-anchor="middle" x="21.5" y="-272.1" font-family="Noto Sans CJK SC" font-size="10.50">users</text>
<polyline fill="none" stroke="#526bb5" points="43,-240.5 43,-308.5 "/>
<text text-anchor="start" x="51" y="-296.1" font-family="Noto Sans CJK SC" font-size="10.50">PK id</text>
<text text-anchor="start" x="51" y="-284.1" font-family="Noto Sans CJK SC" font-size="10.50">username</text>
<text text-anchor="start" x="51" y="-272.1" font-family="Noto Sans CJK SC" font-size="10.50">password_hash</text>
<text text-anchor="start" x="51" y="-260.1" font-family="Noto Sans CJK SC" font-size="10.50">is_admin</text>
<text text-anchor="start" x="51" y="-248.1" font-family="Noto Sans CJK SC" font-size="10.50">created_at</text>
</g>
<!-- datasets -->
<g id="node2" class="node">
<title>datasets</title>
<path fill="#f7f9ff" stroke="#526bb5" d="M225,-222.5C225,-222.5 415,-222.5 415,-222.5 421,-222.5 427,-228.5 427,-234.5 427,-234.5 427,-314.5 427,-314.5 427,-320.5 421,-326.5 415,-326.5 415,-326.5 225,-326.5 225,-326.5 219,-326.5 213,-320.5 213,-314.5 213,-314.5 213,-234.5 213,-234.5 213,-228.5 219,-222.5 225,-222.5"/>
<text text-anchor="middle" x="242.5" y="-272.1" font-family="Noto Sans CJK SC" font-size="10.50">datasets</text>
<polyline fill="none" stroke="#526bb5" points="272,-222.5 272,-326.5 "/>
<text text-anchor="start" x="280" y="-314.1" font-family="Noto Sans CJK SC" font-size="10.50">PK id</text>
<text text-anchor="start" x="280" y="-302.1" font-family="Noto Sans CJK SC" font-size="10.50">FK user_id</text>
<text text-anchor="start" x="280" y="-290.1" font-family="Noto Sans CJK SC" font-size="10.50">name</text>
<text text-anchor="start" x="280" y="-278.1" font-family="Noto Sans CJK SC" font-size="10.50">original_name</text>
<text text-anchor="start" x="280" y="-266.1" font-family="Noto Sans CJK SC" font-size="10.50">file_path</text>
<text text-anchor="start" x="280" y="-254.1" font-family="Noto Sans CJK SC" font-size="10.50">processed_path</text>
<text text-anchor="start" x="280" y="-242.1" font-family="Noto Sans CJK SC" font-size="10.50">row_count / col_count</text>
<text text-anchor="start" x="280" y="-230.1" font-family="Noto Sans CJK SC" font-size="10.50">columns_json / quality_json</text>
</g>
<!-- users&#45;&gt;datasets -->
<g id="edge1" class="edge">
<title>users&#45;&gt;datasets</title>
<path fill="none" stroke="#586fae" stroke-width="1.2" d="M136.32,-274.5C157.78,-274.5 182.14,-274.5 205.92,-274.5"/>
<polygon fill="#586fae" stroke="#586fae" stroke-width="1.2" points="205.94,-276.95 212.94,-274.5 205.94,-272.05 205.94,-276.95"/>
<text text-anchor="middle" x="174.5" y="-277.3" font-family="Noto Sans CJK SC" font-size="9.00">1 : N</text>
</g>
<!-- cleaning -->
<g id="node3" class="node">
<title>cleaning</title>
<path fill="#f7f9ff" stroke="#526bb5" d="M516,-307.5C516,-307.5 732,-307.5 732,-307.5 738,-307.5 744,-313.5 744,-319.5 744,-319.5 744,-375.5 744,-375.5 744,-381.5 738,-387.5 732,-387.5 732,-387.5 516,-387.5 516,-387.5 510,-387.5 504,-381.5 504,-375.5 504,-375.5 504,-319.5 504,-319.5 504,-313.5 510,-307.5 516,-307.5"/>
<text text-anchor="middle" x="555" y="-345.1" font-family="Noto Sans CJK SC" font-size="10.50">cleaning_records</text>
<polyline fill="none" stroke="#526bb5" points="606,-307.5 606,-387.5 "/>
<text text-anchor="start" x="614" y="-375.1" font-family="Noto Sans CJK SC" font-size="10.50">PK id</text>
<text text-anchor="start" x="614" y="-363.1" font-family="Noto Sans CJK SC" font-size="10.50">FK dataset_id</text>
<text text-anchor="start" x="614" y="-351.1" font-family="Noto Sans CJK SC" font-size="10.50">FK user_id</text>
<text text-anchor="start" x="614" y="-339.1" font-family="Noto Sans CJK SC" font-size="10.50">operation</text>
<text text-anchor="start" x="614" y="-327.1" font-family="Noto Sans CJK SC" font-size="10.50">params_json</text>
<text text-anchor="start" x="614" y="-315.1" font-family="Noto Sans CJK SC" font-size="10.50">before_rows / after_rows</text>
</g>
<!-- users&#45;&gt;cleaning -->
<g id="edge2" class="edge">
<title>users&#45;&gt;cleaning</title>
<path fill="none" stroke="#586fae" stroke-width="1.2" d="M123.38,-308.61C149.64,-323.86 182.1,-340.96 213,-352.5 316.64,-391.22 346.03,-394.43 456,-406.5 486.42,-409.84 518.43,-401.67 546.19,-390.43"/>
<polygon fill="#586fae" stroke="#586fae" stroke-width="1.2" points="547.27,-392.63 552.78,-387.67 545.38,-388.11 547.27,-392.63"/>
<text text-anchor="middle" x="320" y="-405.3" font-family="Noto Sans CJK SC" font-size="9.00">1 : N</text>
</g>
<!-- tasks -->
<g id="node4" class="node">
<title>tasks</title>
<path fill="#f7f9ff" stroke="#526bb5" d="M549,-471.5C549,-471.5 699,-471.5 699,-471.5 705,-471.5 711,-477.5 711,-483.5 711,-483.5 711,-575.5 711,-575.5 711,-581.5 705,-587.5 699,-587.5 699,-587.5 549,-587.5 549,-587.5 543,-587.5 537,-581.5 537,-575.5 537,-575.5 537,-483.5 537,-483.5 537,-477.5 543,-471.5 549,-471.5"/>
<text text-anchor="middle" x="581.5" y="-527.1" font-family="Noto Sans CJK SC" font-size="10.50">analysis_tasks</text>
<polyline fill="none" stroke="#526bb5" points="626,-471.5 626,-587.5 "/>
<text text-anchor="start" x="634" y="-575.1" font-family="Noto Sans CJK SC" font-size="10.50">PK id</text>
<text text-anchor="start" x="634" y="-563.1" font-family="Noto Sans CJK SC" font-size="10.50">FK dataset_id</text>
<text text-anchor="start" x="634" y="-551.1" font-family="Noto Sans CJK SC" font-size="10.50">FK user_id</text>
<text text-anchor="start" x="634" y="-539.1" font-family="Noto Sans CJK SC" font-size="10.50">name</text>
<text text-anchor="start" x="634" y="-527.1" font-family="Noto Sans CJK SC" font-size="10.50">analysis_type</text>
<text text-anchor="start" x="634" y="-515.1" font-family="Noto Sans CJK SC" font-size="10.50">params_json</text>
<text text-anchor="start" x="634" y="-503.1" font-family="Noto Sans CJK SC" font-size="10.50">result_json</text>
<text text-anchor="start" x="634" y="-491.1" font-family="Noto Sans CJK SC" font-size="10.50">chart_json</text>
<text text-anchor="start" x="634" y="-479.1" font-family="Noto Sans CJK SC" font-size="10.50">status</text>
</g>
<!-- users&#45;&gt;tasks -->
<g id="edge3" class="edge">
<title>users&#45;&gt;tasks</title>
<path fill="none" stroke="#586fae" stroke-width="1.2" d="M92.8,-308.72C118.52,-343.11 162.65,-395.11 213,-424.5 312.17,-482.37 443.04,-508.72 529.96,-520.46"/>
<polygon fill="#586fae" stroke="#586fae" stroke-width="1.2" points="529.66,-522.89 536.92,-521.38 530.3,-518.03 529.66,-522.89"/>
<text text-anchor="middle" x="320" y="-503.3" font-family="Noto Sans CJK SC" font-size="9.00">1 : N</text>
</g>
<!-- conv -->
<g id="node5" class="node">
<title>conv</title>
<path fill="#f7f9ff" stroke="#526bb5" d="M543,-6.5C543,-6.5 705,-6.5 705,-6.5 711,-6.5 717,-12.5 717,-18.5 717,-18.5 717,-62.5 717,-62.5 717,-68.5 711,-74.5 705,-74.5 705,-74.5 543,-74.5 543,-74.5 537,-74.5 531,-68.5 531,-62.5 531,-62.5 531,-18.5 531,-18.5 531,-12.5 537,-6.5 543,-6.5"/>
<text text-anchor="middle" x="581.5" y="-38.1" font-family="Noto Sans CJK SC" font-size="10.50">ai_conversations</text>
<polyline fill="none" stroke="#526bb5" points="632,-6.5 632,-74.5 "/>
<text text-anchor="start" x="640" y="-62.1" font-family="Noto Sans CJK SC" font-size="10.50">PK id</text>
<text text-anchor="start" x="640" y="-50.1" font-family="Noto Sans CJK SC" font-size="10.50">FK user_id</text>
<text text-anchor="start" x="640" y="-38.1" font-family="Noto Sans CJK SC" font-size="10.50">FK dataset_id</text>
<text text-anchor="start" x="640" y="-26.1" font-family="Noto Sans CJK SC" font-size="10.50">title</text>
<text text-anchor="start" x="640" y="-14.1" font-family="Noto Sans CJK SC" font-size="10.50">created_at</text>
</g>
<!-- users&#45;&gt;conv -->
<g id="edge4" class="edge">
<title>users&#45;&gt;conv</title>
<path fill="none" stroke="#586fae" stroke-width="1.2" d="M93.32,-240.44C119.14,-206.91 163.06,-156.87 213,-129.5 310.23,-76.22 436.79,-54.83 523.43,-46.25"/>
<polygon fill="#586fae" stroke="#586fae" stroke-width="1.2" points="523.91,-48.67 530.64,-45.56 523.44,-43.79 523.91,-48.67"/>
<text text-anchor="middle" x="320" y="-132.3" font-family="Noto Sans CJK SC" font-size="9.00">1 : N</text>
</g>
<!-- reports -->
<g id="node7" class="node">
<title>reports</title>
<path fill="#f7f9ff" stroke="#526bb5" d="M567.5,-151.5C567.5,-151.5 680.5,-151.5 680.5,-151.5 686.5,-151.5 692.5,-157.5 692.5,-163.5 692.5,-163.5 692.5,-231.5 692.5,-231.5 692.5,-237.5 686.5,-243.5 680.5,-243.5 680.5,-243.5 567.5,-243.5 567.5,-243.5 561.5,-243.5 555.5,-237.5 555.5,-231.5 555.5,-231.5 555.5,-163.5 555.5,-163.5 555.5,-157.5 561.5,-151.5 567.5,-151.5"/>
<text text-anchor="middle" x="581.5" y="-195.1" font-family="Noto Sans CJK SC" font-size="10.50">reports</text>
<polyline fill="none" stroke="#526bb5" points="607.5,-151.5 607.5,-243.5 "/>
<text text-anchor="start" x="615.5" y="-231.1" font-family="Noto Sans CJK SC" font-size="10.50">PK id</text>
<text text-anchor="start" x="615.5" y="-219.1" font-family="Noto Sans CJK SC" font-size="10.50">FK user_id</text>
<text text-anchor="start" x="615.5" y="-207.1" font-family="Noto Sans CJK SC" font-size="10.50">FK dataset_id</text>
<text text-anchor="start" x="615.5" y="-195.1" font-family="Noto Sans CJK SC" font-size="10.50">title</text>
<text text-anchor="start" x="615.5" y="-183.1" font-family="Noto Sans CJK SC" font-size="10.50">summary</text>
<text text-anchor="start" x="615.5" y="-171.1" font-family="Noto Sans CJK SC" font-size="10.50">content_html</text>
<text text-anchor="start" x="615.5" y="-159.1" font-family="Noto Sans CJK SC" font-size="10.50">created_at</text>
</g>
<!-- users&#45;&gt;reports -->
<g id="edge5" class="edge">
<title>users&#45;&gt;reports</title>
<path fill="none" stroke="#586fae" stroke-width="1.2" d="M114.97,-240.38C142.15,-221.88 178.01,-200.25 213,-187.5 315.71,-150.09 347.02,-157.97 456,-149.5 487.05,-147.09 520.21,-154.42 548.73,-164.04"/>
<polygon fill="#586fae" stroke="#586fae" stroke-width="1.2" points="548.08,-166.41 555.5,-166.39 549.69,-161.78 548.08,-166.41"/>
<text text-anchor="middle" x="320" y="-190.3" font-family="Noto Sans CJK SC" font-size="9.00">1 : N</text>
</g>
<!-- datasets&#45;&gt;cleaning -->
<g id="edge6" class="edge">
<title>datasets&#45;&gt;cleaning</title>
<path fill="none" stroke="#586fae" stroke-width="1.2" d="M427.05,-300.13C449.63,-305.59 473.69,-311.41 496.94,-317.03"/>
<polygon fill="#586fae" stroke="#586fae" stroke-width="1.2" points="496.42,-319.42 503.8,-318.69 497.57,-314.66 496.42,-319.42"/>
<text text-anchor="middle" x="465.5" y="-313.3" font-family="Noto Sans CJK SC" font-size="9.00">1 : N</text>
</g>
<!-- datasets&#45;&gt;tasks -->
<g id="edge7" class="edge">
<title>datasets&#45;&gt;tasks</title>
<path fill="none" stroke="#586fae" stroke-width="1.2" d="M382.84,-326.72C430.88,-367.28 497.67,-423.67 548.62,-466.7"/>
<polygon fill="#586fae" stroke="#586fae" stroke-width="1.2" points="547.2,-468.7 554.13,-471.34 550.36,-464.96 547.2,-468.7"/>
<text text-anchor="middle" x="465.5" y="-404.3" font-family="Noto Sans CJK SC" font-size="9.00">1 : N</text>
</g>
<!-- datasets&#45;&gt;conv -->
<g id="edge8" class="edge">
<title>datasets&#45;&gt;conv</title>
<path fill="none" stroke="#586fae" stroke-width="1.2" d="M383.85,-222.27C418.85,-193.54 463.43,-157.53 504,-126.5 524.91,-110.51 548.32,-93.42 568.81,-78.72"/>
<polygon fill="#586fae" stroke="#586fae" stroke-width="1.2" points="570.24,-80.71 574.51,-74.64 567.39,-76.73 570.24,-80.71"/>
<text text-anchor="middle" x="465.5" y="-164.3" font-family="Noto Sans CJK SC" font-size="9.00">1 : N</text>
</g>
<!-- datasets&#45;&gt;reports -->
<g id="edge9" class="edge">
<title>datasets&#45;&gt;reports</title>
<path fill="none" stroke="#586fae" stroke-width="1.2" d="M427.05,-247.46C467.04,-237.26 511.66,-225.89 548.21,-216.57"/>
<polygon fill="#586fae" stroke="#586fae" stroke-width="1.2" points="549.23,-218.84 555.41,-214.73 548.02,-214.09 549.23,-218.84"/>
<text text-anchor="middle" x="465.5" y="-240.3" font-family="Noto Sans CJK SC" font-size="9.00">1 : N</text>
</g>
<!-- messages -->
<g id="node6" class="node">
<title>messages</title>
<path fill="#f7f9ff" stroke="#526bb5" d="M833,-0.5C833,-0.5 1001,-0.5 1001,-0.5 1007,-0.5 1013,-6.5 1013,-12.5 1013,-12.5 1013,-68.5 1013,-68.5 1013,-74.5 1007,-80.5 1001,-80.5 1001,-80.5 833,-80.5 833,-80.5 827,-80.5 821,-74.5 821,-68.5 821,-68.5 821,-12.5 821,-12.5 821,-6.5 827,-0.5 833,-0.5"/>
<text text-anchor="middle" x="861.5" y="-38.1" font-family="Noto Sans CJK SC" font-size="10.50">ai_messages</text>
<polyline fill="none" stroke="#526bb5" points="902,-0.5 902,-80.5 "/>
<text text-anchor="start" x="910" y="-68.1" font-family="Noto Sans CJK SC" font-size="10.50">PK id</text>
<text text-anchor="start" x="910" y="-56.1" font-family="Noto Sans CJK SC" font-size="10.50">FK conversation_id</text>
<text text-anchor="start" x="910" y="-44.1" font-family="Noto Sans CJK SC" font-size="10.50">role</text>
<text text-anchor="start" x="910" y="-32.1" font-family="Noto Sans CJK SC" font-size="10.50">content</text>
<text text-anchor="start" x="910" y="-20.1" font-family="Noto Sans CJK SC" font-size="10.50">plan_json</text>
<text text-anchor="start" x="910" y="-8.1" font-family="Noto Sans CJK SC" font-size="10.50">created_at</text>
</g>
<!-- conv&#45;&gt;messages -->
<g id="edge10" class="edge">
<title>conv&#45;&gt;messages</title>
<path fill="none" stroke="#586fae" stroke-width="1.2" d="M717.07,-40.5C747.8,-40.5 782.22,-40.5 813.68,-40.5"/>
<polygon fill="#586fae" stroke="#586fae" stroke-width="1.2" points="813.77,-42.95 820.77,-40.5 813.77,-38.05 813.77,-42.95"/>
<text text-anchor="middle" x="782.5" y="-43.3" font-family="Noto Sans CJK SC" font-size="9.00">1 : N</text>
</g>
</g>
</svg>
