<?xml version="1.0" encoding="UTF-8" standalone="no"?>
<!DOCTYPE svg PUBLIC "-//W3C//DTD SVG 1.1//EN"
 "http://www.w3.org/Graphics/SVG/1.1/DTD/svg11.dtd">
<!-- Generated by graphviz version 2.42.4 (0)
 -->
<!-- Title: G Pages: 1 -->
<svg width="1554pt" height="164pt"
 viewBox="0.00 0.00 1554.20 164.20" xmlns="http://www.w3.org/2000/svg" xmlns:xlink="http://www.w3.org/1999/xlink">
<g id="graph0" class="graph" transform="scale(1 1) rotate(0) translate(21.6 142.6)">
<title>G</title>
<polygon fill="white" stroke="transparent" points="-21.6,21.6 -21.6,-142.6 1532.6,-142.6 1532.6,21.6 -21.6,21.6"/>
<!-- root -->
<g id="node1" class="node">
<title>root</title>
<path fill="#dde7ff" stroke="#536cb8" d="M780.5,-121C780.5,-121 591.5,-121 591.5,-121 585.5,-121 579.5,-115 579.5,-109 579.5,-109 579.5,-91 579.5,-91 579.5,-85 585.5,-79 591.5,-79 591.5,-79 780.5,-79 780.5,-79 786.5,-79 792.5,-85 792.5,-91 792.5,-91 792.5,-109 792.5,-109 792.5,-115 786.5,-121 780.5,-121"/>
<text text-anchor="middle" x="686" y="-105" font-family="Noto Sans CJK SC" font-size="15.00">InsightPilot</text>
<text text-anchor="middle" x="686" y="-88" font-family="Noto Sans CJK SC" font-size="15.00">AI 智能数据分析与可视化平台</text>
</g>
<!-- a -->
<g id="node2" class="node">
<title>a</title>
<path fill="#f7f9ff" stroke="#536cb8" d="M98,-36C98,-36 12,-36 12,-36 6,-36 0,-30 0,-24 0,-24 0,-12 0,-12 0,-6 6,0 12,0 12,0 98,0 98,0 104,0 110,-6 110,-12 110,-12 110,-24 110,-24 110,-30 104,-36 98,-36"/>
<text text-anchor="middle" x="55" y="-21.4" font-family="Noto Sans CJK SC" font-size="12.00">用户管理</text>
<text text-anchor="middle" x="55" y="-8.4" font-family="Noto Sans CJK SC" font-size="12.00">注册 / 登录 / 退出</text>
</g>
<!-- root&#45;&gt;a -->
<g id="edge1" class="edge">
<title>root&#45;&gt;a</title>
<path fill="none" stroke="#6379b6" stroke-width="1.2" d="M579.34,-91.47C465.45,-82.42 280.01,-64.73 122,-36 120.42,-35.71 118.82,-35.41 117.2,-35.09"/>
<polygon fill="#6379b6" stroke="#6379b6" stroke-width="1.2" points="117.43,-32.63 110.08,-33.61 116.43,-37.43 117.43,-32.63"/>
</g>
<!-- b -->
<g id="node3" class="node">
<title>b</title>
<path fill="#f7f9ff" stroke="#536cb8" d="M267,-36C267,-36 147,-36 147,-36 141,-36 135,-30 135,-24 135,-24 135,-12 135,-12 135,-6 141,0 147,0 147,0 267,0 267,0 273,0 279,-6 279,-12 279,-12 279,-24 279,-24 279,-30 273,-36 267,-36"/>
<text text-anchor="middle" x="207" y="-21.4" font-family="Noto Sans CJK SC" font-size="12.00">数据集管理</text>
<text text-anchor="middle" x="207" y="-8.4" font-family="Noto Sans CJK SC" font-size="12.00">上传 / 预览 / 下载 / 删除</text>
</g>
<!-- root&#45;&gt;b -->
<g id="edge2" class="edge">
<title>root&#45;&gt;b</title>
<path fill="none" stroke="#6379b6" stroke-width="1.2" d="M579.34,-83.22C499.74,-71.14 388.38,-53.61 291,-36 289.45,-35.72 287.89,-35.43 286.32,-35.14"/>
<polygon fill="#6379b6" stroke="#6379b6" stroke-width="1.2" points="286.69,-32.72 279.36,-33.84 285.79,-37.54 286.69,-32.72"/>
</g>
<!-- c -->
<g id="node4" class="node">
<title>c</title>
<path fill="#f7f9ff" stroke="#536cb8" d="M448,-36C448,-36 316,-36 316,-36 310,-36 304,-30 304,-24 304,-24 304,-12 304,-12 304,-6 310,0 316,0 316,0 448,0 448,0 454,0 460,-6 460,-12 460,-12 460,-24 460,-24 460,-30 454,-36 448,-36"/>
<text text-anchor="middle" x="382" y="-21.4" font-family="Noto Sans CJK SC" font-size="12.00">质量检测</text>
<text text-anchor="middle" x="382" y="-8.4" font-family="Noto Sans CJK SC" font-size="12.00">缺失 / 重复 / 异常 / 健康度</text>
</g>
<!-- root&#45;&gt;c -->
<g id="edge3" class="edge">
<title>root&#45;&gt;c</title>
<path fill="none" stroke="#6379b6" stroke-width="1.2" d="M609.68,-78.92C561.82,-66.32 500.52,-50.19 453.59,-37.84"/>
<polygon fill="#6379b6" stroke="#6379b6" stroke-width="1.2" points="454.16,-35.46 446.77,-36.04 452.91,-40.2 454.16,-35.46"/>
</g>
<!-- d -->
<g id="node5" class="node">
<title>d</title>
<path fill="#f7f9ff" stroke="#536cb8" d="M653,-36C653,-36 497,-36 497,-36 491,-36 485,-30 485,-24 485,-24 485,-12 485,-12 485,-6 491,0 497,0 497,0 653,0 653,0 659,0 665,-6 665,-12 665,-12 665,-24 665,-24 665,-30 659,-36 653,-36"/>
<text text-anchor="middle" x="575" y="-21.4" font-family="Noto Sans CJK SC" font-size="12.00">数据清洗</text>
<text text-anchor="middle" x="575" y="-8.4" font-family="Noto Sans CJK SC" font-size="12.00">填补 / 去重 / 标准化 / 异常处理</text>
</g>
<!-- root&#45;&gt;d -->
<g id="edge4" class="edge">
<title>root&#45;&gt;d</title>
<path fill="none" stroke="#6379b6" stroke-width="1.2" d="M657.99,-78.81C641.75,-67.1 621.3,-52.37 604.76,-40.45"/>
<polygon fill="#6379b6" stroke="#6379b6" stroke-width="1.2" points="605.97,-38.3 598.86,-36.2 603.11,-42.28 605.97,-38.3"/>
</g>
<!-- e -->
<g id="node6" class="node">
<title>e</title>
<path fill="#f7f9ff" stroke="#536cb8" d="M891.5,-36C891.5,-36 702.5,-36 702.5,-36 696.5,-36 690.5,-30 690.5,-24 690.5,-24 690.5,-12 690.5,-12 690.5,-6 696.5,0 702.5,0 702.5,0 891.5,0 891.5,0 897.5,0 903.5,-6 903.5,-12 903.5,-12 903.5,-24 903.5,-24 903.5,-30 897.5,-36 891.5,-36"/>
<text text-anchor="middle" x="797" y="-21.4" font-family="Noto Sans CJK SC" font-size="12.00">统计分析</text>
<text text-anchor="middle" x="797" y="-8.4" font-family="Noto Sans CJK SC" font-size="12.00">描述 / 频数 / 聚合 / 相关 / 回归 / 聚类</text>
</g>
<!-- root&#45;&gt;e -->
<g id="edge5" class="edge">
<title>root&#45;&gt;e</title>
<path fill="none" stroke="#6379b6" stroke-width="1.2" d="M714.01,-78.81C730.25,-67.1 750.7,-52.37 767.24,-40.45"/>
<polygon fill="#6379b6" stroke="#6379b6" stroke-width="1.2" points="768.89,-42.28 773.14,-36.2 766.03,-38.3 768.89,-42.28"/>
</g>
<!-- f -->
<g id="node7" class="node">
<title>f</title>
<path fill="#f7f9ff" stroke="#536cb8" d="M1073,-36C1073,-36 941,-36 941,-36 935,-36 929,-30 929,-24 929,-24 929,-12 929,-12 929,-6 935,0 941,0 941,0 1073,0 1073,0 1079,0 1085,-6 1085,-12 1085,-12 1085,-24 1085,-24 1085,-30 1079,-36 1073,-36"/>
<text text-anchor="middle" x="1007" y="-21.4" font-family="Noto Sans CJK SC" font-size="12.00">可视化</text>
<text text-anchor="middle" x="1007" y="-8.4" font-family="Noto Sans CJK SC" font-size="12.00">柱状 / 折线 / 散点 / 热力图</text>
</g>
<!-- root&#45;&gt;f -->
<g id="edge6" class="edge">
<title>root&#45;&gt;f</title>
<path fill="none" stroke="#6379b6" stroke-width="1.2" d="M766.59,-78.92C817.23,-66.3 882.12,-50.12 931.72,-37.76"/>
<polygon fill="#6379b6" stroke="#6379b6" stroke-width="1.2" points="932.41,-40.11 938.61,-36.04 931.22,-35.36 932.41,-40.11"/>
</g>
<!-- g -->
<g id="node8" class="node">
<title>g</title>
<path fill="#f7f9ff" stroke="#536cb8" d="M1304,-36C1304,-36 1122,-36 1122,-36 1116,-36 1110,-30 1110,-24 1110,-24 1110,-12 1110,-12 1110,-6 1116,0 1122,0 1122,0 1304,0 1304,0 1310,0 1316,-6 1316,-12 1316,-12 1316,-24 1316,-24 1316,-30 1310,-36 1304,-36"/>
<text text-anchor="middle" x="1213" y="-21.4" font-family="Noto Sans CJK SC" font-size="12.00">AI 助手</text>
<text text-anchor="middle" x="1213" y="-8.4" font-family="Noto Sans CJK SC" font-size="12.00">自然语言计划 / 安全校验 / 智能解释</text>
</g>
<!-- root&#45;&gt;g -->
<g id="edge7" class="edge">
<title>root&#45;&gt;g</title>
<path fill="none" stroke="#6379b6" stroke-width="1.2" d="M792.65,-82.81C882.78,-69.13 1011.42,-49.6 1102.6,-35.76"/>
<polygon fill="#6379b6" stroke="#6379b6" stroke-width="1.2" points="1103.1,-38.16 1109.65,-34.69 1102.36,-33.32 1103.1,-38.16"/>
</g>
<!-- h -->
<g id="node9" class="node">
<title>h</title>
<path fill="#f7f9ff" stroke="#536cb8" d="M1499,-36C1499,-36 1353,-36 1353,-36 1347,-36 1341,-30 1341,-24 1341,-24 1341,-12 1341,-12 1341,-6 1347,0 1353,0 1353,0 1499,0 1499,0 1505,0 1511,-6 1511,-12 1511,-12 1511,-24 1511,-24 1511,-30 1505,-36 1499,-36"/>
<text text-anchor="middle" x="1426" y="-21.4" font-family="Noto Sans CJK SC" font-size="12.00">报告中心</text>
<text text-anchor="middle" x="1426" y="-8.4" font-family="Noto Sans CJK SC" font-size="12.00">保存记录 / HTML 报告 / 导出</text>
</g>
<!-- root&#45;&gt;h -->
<g id="edge8" class="edge">
<title>root&#45;&gt;h</title>
<path fill="none" stroke="#6379b6" stroke-width="1.2" d="M792.67,-91.04C920.47,-80.93 1140.9,-61.66 1329,-36 1330.58,-35.78 1332.18,-35.56 1333.79,-35.33"/>
<polygon fill="#6379b6" stroke="#6379b6" stroke-width="1.2" points="1334.32,-37.73 1340.89,-34.29 1333.61,-32.88 1334.32,-37.73"/>
</g>
</g>
</svg>
