<?xml version="1.0" encoding="UTF-8" standalone="no"?>
<!DOCTYPE svg PUBLIC "-//W3C//DTD SVG 1.1//EN"
 "http://www.w3.org/Graphics/SVG/1.1/DTD/svg11.dtd">
<!-- Generated by graphviz version 2.42.4 (0)
 -->
<!-- Title: G Pages: 1 -->
<svg width="1010pt" height="451pt"
 viewBox="0.00 0.00 1010.20 450.95" xmlns="http://www.w3.org/2000/svg" xmlns:xlink="http://www.w3.org/1999/xlink">
<g id="graph0" class="graph" transform="scale(1 1) rotate(0) translate(21.6 429.35)">
<title>G</title>
<polygon fill="white" stroke="transparent" points="-21.6,21.6 -21.6,-429.35 988.6,-429.35 988.6,21.6 -21.6,21.6"/>
<g id="clust1" class="cluster">
<title>cluster_modules</title>
<path fill="white" stroke="#a7b7e8" stroke-dasharray="5,2" d="M158.5,-185.75C158.5,-185.75 806.5,-185.75 806.5,-185.75 812.5,-185.75 818.5,-191.75 818.5,-197.75 818.5,-197.75 818.5,-248.75 818.5,-248.75 818.5,-254.75 812.5,-260.75 806.5,-260.75 806.5,-260.75 158.5,-260.75 158.5,-260.75 152.5,-260.75 146.5,-254.75 146.5,-248.75 146.5,-248.75 146.5,-197.75 146.5,-197.75 146.5,-191.75 152.5,-185.75 158.5,-185.75"/>
<text text-anchor="middle" x="482.5" y="-245.55" font-family="Noto Sans CJK SC" font-size="14.00">业务模块层</text>
</g>
<g id="clust3" class="cluster">
<title>cluster_services</title>
<path fill="white" stroke="#a7b7e8" stroke-dasharray="5,2" d="M240.5,-88.88C240.5,-88.88 837.5,-88.88 837.5,-88.88 843.5,-88.88 849.5,-94.88 849.5,-100.88 849.5,-100.88 849.5,-157.88 849.5,-157.88 849.5,-163.88 843.5,-169.88 837.5,-169.88 837.5,-169.88 240.5,-169.88 240.5,-169.88 234.5,-169.88 228.5,-163.88 228.5,-157.88 228.5,-157.88 228.5,-100.88 228.5,-100.88 228.5,-94.88 234.5,-88.88 240.5,-88.88"/>
<text text-anchor="middle" x="539" y="-154.68" font-family="Noto Sans CJK SC" font-size="14.00">服务与算法层</text>
</g>
<!-- user -->
<g id="node1" class="node">
<title>user</title>
<path fill="#e9f2ff" stroke="#4d67b1" d="M546.5,-407.75C546.5,-407.75 422.5,-407.75 422.5,-407.75 416.5,-407.75 410.5,-401.75 410.5,-395.75 410.5,-395.75 410.5,-377.75 410.5,-377.75 410.5,-371.75 416.5,-365.75 422.5,-365.75 422.5,-365.75 546.5,-365.75 546.5,-365.75 552.5,-365.75 558.5,-371.75 558.5,-377.75 558.5,-377.75 558.5,-395.75 558.5,-395.75 558.5,-401.75 552.5,-407.75 546.5,-407.75"/>
<text text-anchor="middle" x="484.5" y="-390.35" font-family="Noto Sans CJK SC" font-size="13.00">用户浏览器</text>
<text text-anchor="middle" x="484.5" y="-376.35" font-family="Noto Sans CJK SC" font-size="13.00">Bootstrap + Plotly.js</text>
</g>
<!-- web -->
<g id="node2" class="node">
<title>web</title>
<path fill="#e7edff" stroke="#4d67b1" d="M556.5,-318.75C556.5,-318.75 412.5,-318.75 412.5,-318.75 406.5,-318.75 400.5,-312.75 400.5,-306.75 400.5,-306.75 400.5,-288.75 400.5,-288.75 400.5,-282.75 406.5,-276.75 412.5,-276.75 412.5,-276.75 556.5,-276.75 556.5,-276.75 562.5,-276.75 568.5,-282.75 568.5,-288.75 568.5,-288.75 568.5,-306.75 568.5,-306.75 568.5,-312.75 562.5,-318.75 556.5,-318.75"/>
<text text-anchor="middle" x="484.5" y="-301.35" font-family="Noto Sans CJK SC" font-size="13.00">Flask Web 应用</text>
<text text-anchor="middle" x="484.5" y="-287.35" font-family="Noto Sans CJK SC" font-size="13.00">路由 / 模板 / 会话 / CSRF</text>
</g>
<!-- user&#45;&gt;web -->
<g id="edge1" class="edge">
<title>user&#45;&gt;web</title>
<path fill="none" stroke="#6078b8" stroke-width="1.4" d="M484.5,-365.57C484.5,-354.15 484.5,-339.69 484.5,-327.14"/>
<polygon fill="#6078b8" stroke="#6078b8" stroke-width="1.4" points="487.3,-326.82 484.5,-318.82 481.7,-326.82 487.3,-326.82"/>
</g>
<!-- auth -->
<g id="node3" class="node">
<title>auth</title>
<path fill="#f5f8ff" stroke="#4d67b1" d="M220.5,-229.75C220.5,-229.75 166.5,-229.75 166.5,-229.75 160.5,-229.75 154.5,-223.75 154.5,-217.75 154.5,-217.75 154.5,-205.75 154.5,-205.75 154.5,-199.75 160.5,-193.75 166.5,-193.75 166.5,-193.75 220.5,-193.75 220.5,-193.75 226.5,-193.75 232.5,-199.75 232.5,-205.75 232.5,-205.75 232.5,-217.75 232.5,-217.75 232.5,-223.75 226.5,-229.75 220.5,-229.75"/>
<text text-anchor="middle" x="193.5" y="-208.35" font-family="Noto Sans CJK SC" font-size="13.00">用户认证</text>
</g>
<!-- web&#45;&gt;auth -->
<g id="edge2" class="edge">
<title>web&#45;&gt;auth</title>
<path fill="none" stroke="#6078b8" stroke-width="1.4" d="M400.38,-295.33C353.78,-291.8 295.87,-282.73 248.5,-260.75 235.86,-254.89 223.94,-245.21 214.44,-236.07"/>
<polygon fill="#6078b8" stroke="#6078b8" stroke-width="1.4" points="216.21,-233.88 208.57,-230.19 212.24,-237.83 216.21,-233.88"/>
</g>
<!-- datasets -->
<g id="node4" class="node">
<title>datasets</title>
<path fill="#f5f8ff" stroke="#4d67b1" d="M798.5,-229.75C798.5,-229.75 732.5,-229.75 732.5,-229.75 726.5,-229.75 720.5,-223.75 720.5,-217.75 720.5,-217.75 720.5,-205.75 720.5,-205.75 720.5,-199.75 726.5,-193.75 732.5,-193.75 732.5,-193.75 798.5,-193.75 798.5,-193.75 804.5,-193.75 810.5,-199.75 810.5,-205.75 810.5,-205.75 810.5,-217.75 810.5,-217.75 810.5,-223.75 804.5,-229.75 798.5,-229.75"/>
<text text-anchor="middle" x="765.5" y="-208.35" font-family="Noto Sans CJK SC" font-size="13.00">数据集管理</text>
</g>
<!-- web&#45;&gt;datasets -->
<g id="edge3" class="edge">
<title>web&#45;&gt;datasets</title>
<path fill="none" stroke="#6078b8" stroke-width="1.4" d="M568.54,-292.93C610.78,-288.57 661.9,-279.49 704.5,-260.75 718.42,-254.63 731.92,-244.57 742.67,-235.25"/>
<polygon fill="#6078b8" stroke="#6078b8" stroke-width="1.4" points="744.57,-237.3 748.66,-229.87 740.83,-233.13 744.57,-237.3"/>
</g>
<!-- cleaning -->
<g id="node5" class="node">
<title>cleaning</title>
<path fill="#f5f8ff" stroke="#4d67b1" d="M676.5,-229.75C676.5,-229.75 622.5,-229.75 622.5,-229.75 616.5,-229.75 610.5,-223.75 610.5,-217.75 610.5,-217.75 610.5,-205.75 610.5,-205.75 610.5,-199.75 616.5,-193.75 622.5,-193.75 622.5,-193.75 676.5,-193.75 676.5,-193.75 682.5,-193.75 688.5,-199.75 688.5,-205.75 688.5,-205.75 688.5,-217.75 688.5,-217.75 688.5,-223.75 682.5,-229.75 676.5,-229.75"/>
<text text-anchor="middle" x="649.5" y="-208.35" font-family="Noto Sans CJK SC" font-size="13.00">数据清洗</text>
</g>
<!-- web&#45;&gt;cleaning -->
<g id="edge4" class="edge">
<title>web&#45;&gt;cleaning</title>
<path fill="none" stroke="#6078b8" stroke-width="1.4" d="M559.61,-276.67C571.63,-272.19 583.67,-266.91 594.5,-260.75 606.43,-253.97 618.11,-244.34 627.61,-235.48"/>
<polygon fill="#6078b8" stroke="#6078b8" stroke-width="1.4" points="629.69,-237.36 633.53,-229.81 625.81,-233.32 629.69,-237.36"/>
</g>
<!-- analysis -->
<g id="node6" class="node">
<title>analysis</title>
<path fill="#f5f8ff" stroke="#4d67b1" d="M456.5,-229.75C456.5,-229.75 402.5,-229.75 402.5,-229.75 396.5,-229.75 390.5,-223.75 390.5,-217.75 390.5,-217.75 390.5,-205.75 390.5,-205.75 390.5,-199.75 396.5,-193.75 402.5,-193.75 402.5,-193.75 456.5,-193.75 456.5,-193.75 462.5,-193.75 468.5,-199.75 468.5,-205.75 468.5,-205.75 468.5,-217.75 468.5,-217.75 468.5,-223.75 462.5,-229.75 456.5,-229.75"/>
<text text-anchor="middle" x="429.5" y="-208.35" font-family="Noto Sans CJK SC" font-size="13.00">统计分析</text>
</g>
<!-- web&#45;&gt;analysis -->
<g id="edge5" class="edge">
<title>web&#45;&gt;analysis</title>
<path fill="none" stroke="#6078b8" stroke-width="1.4" d="M471.19,-276.42C463.37,-264.48 453.46,-249.34 445.25,-236.81"/>
<polygon fill="#6078b8" stroke="#6078b8" stroke-width="1.4" points="447.38,-234.94 440.65,-229.78 442.69,-238.01 447.38,-234.94"/>
</g>
<!-- ai -->
<g id="node7" class="node">
<title>ai</title>
<path fill="#f5f8ff" stroke="#4d67b1" d="M346,-229.75C346,-229.75 277,-229.75 277,-229.75 271,-229.75 265,-223.75 265,-217.75 265,-217.75 265,-205.75 265,-205.75 265,-199.75 271,-193.75 277,-193.75 277,-193.75 346,-193.75 346,-193.75 352,-193.75 358,-199.75 358,-205.75 358,-205.75 358,-217.75 358,-217.75 358,-223.75 352,-229.75 346,-229.75"/>
<text text-anchor="middle" x="311.5" y="-208.35" font-family="Noto Sans CJK SC" font-size="13.00">AI 数据助手</text>
</g>
<!-- web&#45;&gt;ai -->
<g id="edge6" class="edge">
<title>web&#45;&gt;ai</title>
<path fill="none" stroke="#6078b8" stroke-width="1.4" d="M411.48,-276.68C398.85,-272.13 386.06,-266.82 374.5,-260.75 361.17,-253.75 347.72,-243.95 336.68,-235.04"/>
<polygon fill="#6078b8" stroke="#6078b8" stroke-width="1.4" points="338.44,-232.85 330.49,-229.91 334.87,-237.17 338.44,-232.85"/>
</g>
<!-- report -->
<g id="node8" class="node">
<title>report</title>
<path fill="#f5f8ff" stroke="#4d67b1" d="M566.5,-229.75C566.5,-229.75 512.5,-229.75 512.5,-229.75 506.5,-229.75 500.5,-223.75 500.5,-217.75 500.5,-217.75 500.5,-205.75 500.5,-205.75 500.5,-199.75 506.5,-193.75 512.5,-193.75 512.5,-193.75 566.5,-193.75 566.5,-193.75 572.5,-193.75 578.5,-199.75 578.5,-205.75 578.5,-205.75 578.5,-217.75 578.5,-217.75 578.5,-223.75 572.5,-229.75 566.5,-229.75"/>
<text text-anchor="middle" x="539.5" y="-208.35" font-family="Noto Sans CJK SC" font-size="13.00">报告生成</text>
</g>
<!-- web&#45;&gt;report -->
<g id="edge7" class="edge">
<title>web&#45;&gt;report</title>
<path fill="none" stroke="#6078b8" stroke-width="1.4" d="M497.81,-276.42C505.63,-264.48 515.54,-249.34 523.75,-236.81"/>
<polygon fill="#6078b8" stroke="#6078b8" stroke-width="1.4" points="526.31,-238.01 528.35,-229.78 521.62,-234.94 526.31,-238.01"/>
</g>
<!-- mysql -->
<g id="node13" class="node">
<title>mysql</title>
<path fill="#fff4de" stroke="#c8902f" d="M205,-141.4C205,-144.28 159.06,-146.63 102.5,-146.63 45.94,-146.63 0,-144.28 0,-141.4 0,-141.4 0,-94.35 0,-94.35 0,-91.47 45.94,-89.12 102.5,-89.12 159.06,-89.12 205,-91.47 205,-94.35 205,-94.35 205,-141.4 205,-141.4"/>
<path fill="none" stroke="#c8902f" d="M205,-141.4C205,-138.51 159.06,-136.17 102.5,-136.17 45.94,-136.17 0,-138.51 0,-141.4"/>
<text text-anchor="middle" x="102.5" y="-121.47" font-family="Noto Sans CJK SC" font-size="13.00">MySQL 5.7</text>
<text text-anchor="middle" x="102.5" y="-107.47" font-family="Noto Sans CJK SC" font-size="13.00">用户、元数据、分析记录、报告</text>
</g>
<!-- auth&#45;&gt;mysql -->
<g id="edge17" class="edge">
<title>auth&#45;&gt;mysql</title>
<path fill="none" stroke="#6078b8" stroke-width="1.4" d="M176.38,-193.47C165.03,-182.01 149.75,-166.58 136.04,-152.73"/>
<polygon fill="#6078b8" stroke="#6078b8" stroke-width="1.4" points="137.89,-150.63 130.27,-146.91 133.91,-154.57 137.89,-150.63"/>
</g>
<!-- pandas -->
<g id="node9" class="node">
<title>pandas</title>
<path fill="#f5f8ff" stroke="#4d67b1" d="M829,-138.88C829,-138.88 724,-138.88 724,-138.88 718,-138.88 712,-132.88 712,-126.88 712,-126.88 712,-108.88 712,-108.88 712,-102.88 718,-96.88 724,-96.88 724,-96.88 829,-96.88 829,-96.88 835,-96.88 841,-102.88 841,-108.88 841,-108.88 841,-126.88 841,-126.88 841,-132.88 835,-138.88 829,-138.88"/>
<text text-anchor="middle" x="776.5" y="-121.47" font-family="Noto Sans CJK SC" font-size="13.00">Pandas / NumPy</text>
<text text-anchor="middle" x="776.5" y="-107.47" font-family="Noto Sans CJK SC" font-size="13.00">载入、清洗、统计</text>
</g>
<!-- datasets&#45;&gt;pandas -->
<g id="edge8" class="edge">
<title>datasets&#45;&gt;pandas</title>
<path fill="none" stroke="#6078b8" stroke-width="1.4" d="M767.57,-193.47C769.13,-180.4 771.32,-162.18 773.13,-147.01"/>
<polygon fill="#6078b8" stroke="#6078b8" stroke-width="1.4" points="775.92,-147.23 774.1,-138.96 770.36,-146.57 775.92,-147.23"/>
</g>
<!-- datasets&#45;&gt;mysql -->
<g id="edge18" class="edge">
<title>datasets&#45;&gt;mysql</title>
<path fill="none" stroke="#6078b8" stroke-width="1.4" d="M729.73,-193.62C721.6,-190.44 712.89,-187.55 704.5,-185.75 599.27,-163.23 325.51,-193.4 220.5,-169.88 201.06,-165.52 180.84,-158 162.73,-150.06"/>
<polygon fill="#6078b8" stroke="#6078b8" stroke-width="1.4" points="163.56,-147.36 155.11,-146.64 161.26,-152.47 163.56,-147.36"/>
</g>
<!-- files -->
<g id="node14" class="node">
<title>files</title>
<polygon fill="#fff4de" stroke="#c8902f" points="967,-42 964,-46 943,-46 940,-42 814,-42 814,0 967,0 967,-42"/>
<text text-anchor="middle" x="890.5" y="-24.6" font-family="Noto Sans CJK SC" font-size="13.00">文件存储</text>
<text text-anchor="middle" x="890.5" y="-10.6" font-family="Noto Sans CJK SC" font-size="13.00">原始数据 / 清洗后数据</text>
</g>
<!-- datasets&#45;&gt;files -->
<g id="edge23" class="edge">
<title>datasets&#45;&gt;files</title>
<path fill="none" stroke="#6078b8" stroke-width="1.4" d="M810.81,-204.51C850.15,-198.05 902.76,-186.55 915.5,-169.88 942.21,-134.92 922.77,-81.69 906.47,-49.54"/>
<polygon fill="#6078b8" stroke="#6078b8" stroke-width="1.4" points="908.83,-48.01 902.63,-42.23 903.87,-50.62 908.83,-48.01"/>
</g>
<!-- cleaning&#45;&gt;pandas -->
<g id="edge9" class="edge">
<title>cleaning&#45;&gt;pandas</title>
<path fill="none" stroke="#6078b8" stroke-width="1.4" d="M673.09,-193.68C692.46,-179.67 720.17,-159.63 742.03,-143.81"/>
<polygon fill="#6078b8" stroke="#6078b8" stroke-width="1.4" points="743.77,-146.01 748.61,-139.05 740.49,-141.47 743.77,-146.01"/>
</g>
<!-- cleaning&#45;&gt;mysql -->
<g id="edge19" class="edge">
<title>cleaning&#45;&gt;mysql</title>
<path fill="none" stroke="#6078b8" stroke-width="1.4" d="M617.37,-193.67C610.04,-190.48 602.15,-187.58 594.5,-185.75 432.68,-147.09 382.67,-207.02 220.5,-169.88 201.18,-165.45 181.06,-157.96 163.03,-150.06"/>
<polygon fill="#6078b8" stroke="#6078b8" stroke-width="1.4" points="163.88,-147.37 155.43,-146.65 161.59,-152.48 163.88,-147.37"/>
</g>
<!-- cleaning&#45;&gt;files -->
<g id="edge24" class="edge">
<title>cleaning&#45;&gt;files</title>
<path fill="none" stroke="#6078b8" stroke-width="1.4" d="M682.6,-193.64C689.67,-190.57 697.21,-187.73 704.5,-185.75 737.49,-176.8 831.97,-192.6 857.5,-169.88 891.1,-139.97 894.54,-84.03 893.11,-50.19"/>
<polygon fill="#6078b8" stroke="#6078b8" stroke-width="1.4" points="895.9,-49.92 892.66,-42.09 890.31,-50.23 895.9,-49.92"/>
</g>
<!-- analysis&#45;&gt;pandas -->
<g id="edge10" class="edge">
<title>analysis&#45;&gt;pandas</title>
<path fill="none" stroke="#6078b8" stroke-width="1.4" d="M461.97,-193.73C469.21,-190.58 476.98,-187.68 484.5,-185.75 575.6,-162.4 606.19,-199.32 695.5,-169.88 713,-164.11 730.53,-153.77 744.78,-143.9"/>
<polygon fill="#6078b8" stroke="#6078b8" stroke-width="1.4" points="746.61,-146.04 751.51,-139.12 743.36,-141.48 746.61,-146.04"/>
</g>
<!-- sklearn -->
<g id="node10" class="node">
<title>sklearn</title>
<path fill="#f5f8ff" stroke="#4d67b1" d="M667.5,-138.88C667.5,-138.88 595.5,-138.88 595.5,-138.88 589.5,-138.88 583.5,-132.88 583.5,-126.88 583.5,-126.88 583.5,-108.88 583.5,-108.88 583.5,-102.88 589.5,-96.88 595.5,-96.88 595.5,-96.88 667.5,-96.88 667.5,-96.88 673.5,-96.88 679.5,-102.88 679.5,-108.88 679.5,-108.88 679.5,-126.88 679.5,-126.88 679.5,-132.88 673.5,-138.88 667.5,-138.88"/>
<text text-anchor="middle" x="631.5" y="-121.47" font-family="Noto Sans CJK SC" font-size="13.00">Scikit&#45;learn</text>
<text text-anchor="middle" x="631.5" y="-107.47" font-family="Noto Sans CJK SC" font-size="13.00">回归、聚类</text>
</g>
<!-- analysis&#45;&gt;sklearn -->
<g id="edge11" class="edge">
<title>analysis&#45;&gt;sklearn</title>
<path fill="none" stroke="#6078b8" stroke-width="1.4" d="M463.63,-193.73C470.43,-190.77 477.6,-187.94 484.5,-185.75 520.29,-174.37 533.38,-185.56 567.5,-169.88 581.2,-163.57 594.55,-153.73 605.48,-144.36"/>
<polygon fill="#6078b8" stroke="#6078b8" stroke-width="1.4" points="607.48,-146.33 611.61,-138.93 603.77,-142.14 607.48,-146.33"/>
</g>
<!-- analysis&#45;&gt;mysql -->
<g id="edge20" class="edge">
<title>analysis&#45;&gt;mysql</title>
<path fill="none" stroke="#6078b8" stroke-width="1.4" d="M395.77,-193.64C388.57,-190.58 380.9,-187.73 373.5,-185.75 307.46,-168.07 286.64,-187.16 220.5,-169.88 201.89,-165.01 182.44,-157.64 164.82,-150"/>
<polygon fill="#6078b8" stroke="#6078b8" stroke-width="1.4" points="165.83,-147.39 157.38,-146.72 163.57,-152.52 165.83,-147.39"/>
</g>
<!-- planner -->
<g id="node11" class="node">
<title>planner</title>
<path fill="#f5f8ff" stroke="#4d67b1" d="M354,-138.88C354,-138.88 249,-138.88 249,-138.88 243,-138.88 237,-132.88 237,-126.88 237,-126.88 237,-108.88 237,-108.88 237,-102.88 243,-96.88 249,-96.88 249,-96.88 354,-96.88 354,-96.88 360,-96.88 366,-102.88 366,-108.88 366,-108.88 366,-126.88 366,-126.88 366,-132.88 360,-138.88 354,-138.88"/>
<text text-anchor="middle" x="301.5" y="-121.47" font-family="Noto Sans CJK SC" font-size="13.00">分析计划校验器</text>
<text text-anchor="middle" x="301.5" y="-107.47" font-family="Noto Sans CJK SC" font-size="13.00">白名单 + 参数校验</text>
</g>
<!-- ai&#45;&gt;planner -->
<g id="edge12" class="edge">
<title>ai&#45;&gt;planner</title>
<path fill="none" stroke="#6078b8" stroke-width="1.4" d="M309.62,-193.47C308.2,-180.4 306.21,-162.18 304.56,-147.01"/>
<polygon fill="#6078b8" stroke="#6078b8" stroke-width="1.4" points="307.34,-146.61 303.69,-138.96 301.77,-147.21 307.34,-146.61"/>
</g>
<!-- ai&#45;&gt;mysql -->
<g id="edge21" class="edge">
<title>ai&#45;&gt;mysql</title>
<path fill="none" stroke="#6078b8" stroke-width="1.4" d="M272.68,-193.68C244.69,-181.38 206.14,-164.43 172.8,-149.78"/>
<polygon fill="#6078b8" stroke="#6078b8" stroke-width="1.4" points="173.78,-147.15 165.33,-146.5 171.53,-152.28 173.78,-147.15"/>
</g>
<!-- report&#45;&gt;pandas -->
<g id="edge16" class="edge">
<title>report&#45;&gt;pandas</title>
<path fill="none" stroke="#6078b8" stroke-width="1.4" d="M573.27,-193.67C580.17,-190.68 587.47,-187.86 594.5,-185.75 638.03,-172.7 652.96,-185.84 695.5,-169.88 712.48,-163.5 729.71,-153.3 743.88,-143.68"/>
<polygon fill="#6078b8" stroke="#6078b8" stroke-width="1.4" points="745.61,-145.89 750.58,-139.03 742.41,-141.29 745.61,-145.89"/>
</g>
<!-- report&#45;&gt;mysql -->
<g id="edge22" class="edge">
<title>report&#45;&gt;mysql</title>
<path fill="none" stroke="#6078b8" stroke-width="1.4" d="M507.05,-193.64C499.81,-190.5 492.03,-187.62 484.5,-185.75 370.42,-157.43 334.84,-197.13 220.5,-169.88 201.41,-165.32 181.51,-157.88 163.61,-150.07"/>
<polygon fill="#6078b8" stroke="#6078b8" stroke-width="1.4" points="164.52,-147.41 156.07,-146.71 162.24,-152.53 164.52,-147.41"/>
</g>
<!-- pandas&#45;&gt;files -->
<g id="edge25" class="edge">
<title>pandas&#45;&gt;files</title>
<path fill="none" stroke="#6078b8" stroke-width="1.4" d="M807.28,-91.26C823.66,-77.62 843.74,-60.91 860.07,-47.32"/>
<polygon fill="#6078b8" stroke="#6078b8" stroke-width="1.4" points="805.03,-89.48 800.68,-96.75 808.62,-93.79 805.03,-89.48"/>
<polygon fill="#6078b8" stroke="#6078b8" stroke-width="1.4" points="862,-49.36 866.36,-42.09 858.42,-45.06 862,-49.36"/>
</g>
<!-- planner&#45;&gt;pandas -->
<g id="edge13" class="edge">
<title>planner&#45;&gt;pandas</title>
<path fill="none" stroke="#6078b8" stroke-width="1.4" d="M325.5,-139.16C343.77,-153.7 370.34,-171.44 397.5,-177.81 428.01,-184.96 648.99,-184.96 679.5,-177.81 703.87,-172.1 727.84,-157.4 745.85,-143.99"/>
<polygon fill="#6078b8" stroke="#6078b8" stroke-width="1.4" points="747.55,-146.21 752.21,-139.13 744.15,-141.77 747.55,-146.21"/>
</g>
<!-- planner&#45;&gt;sklearn -->
<g id="edge14" class="edge">
<title>planner&#45;&gt;sklearn</title>
<path fill="none" stroke="#6078b8" stroke-width="1.4" d="M325.5,-139.16C343.77,-153.7 370.34,-171.44 397.5,-177.81 430.82,-185.62 518.18,-185.62 551.5,-177.81 572.79,-172.82 592.5,-158.22 607.03,-144.69"/>
<polygon fill="#6078b8" stroke="#6078b8" stroke-width="1.4" points="609.13,-146.55 612.93,-138.98 605.24,-142.53 609.13,-146.55"/>
</g>
<!-- llm -->
<g id="node12" class="node">
<title>llm</title>
<path fill="#f5f8ff" stroke="#4d67b1" d="M539,-138.88C539,-138.88 410,-138.88 410,-138.88 404,-138.88 398,-132.88 398,-126.88 398,-126.88 398,-108.88 398,-108.88 398,-102.88 404,-96.88 410,-96.88 410,-96.88 539,-96.88 539,-96.88 545,-96.88 551,-102.88 551,-108.88 551,-108.88 551,-126.88 551,-126.88 551,-132.88 545,-138.88 539,-138.88"/>
<text text-anchor="middle" x="474.5" y="-121.47" font-family="Noto Sans CJK SC" font-size="13.00">规则引擎 / 大模型接口</text>
<text text-anchor="middle" x="474.5" y="-107.47" font-family="Noto Sans CJK SC" font-size="13.00">意图理解与结果解释</text>
</g>
<!-- planner&#45;&gt;llm -->
<g id="edge15" class="edge">
<title>planner&#45;&gt;llm</title>
<path fill="none" stroke="#6078b8" stroke-width="1.4" d="M366.04,-117.88C373.82,-117.88 381.59,-117.88 389.37,-117.88"/>
<polygon fill="#6078b8" stroke="#6078b8" stroke-width="1.4" points="389.81,-120.68 397.81,-117.88 389.81,-115.08 389.81,-120.68"/>
</g>
</g>
</svg>
