<?xml version="1.0" encoding="UTF-8" standalone="no"?>
<!DOCTYPE svg PUBLIC "-//W3C//DTD SVG 1.1//EN"
 "http://www.w3.org/Graphics/SVG/1.1/DTD/svg11.dtd">
<!-- Generated by graphviz version 2.42.4 (0)
 -->
<!-- Title: G Pages: 1 -->
<svg width="343pt" height="678pt"
 viewBox="0.00 0.00 342.89 678.20" xmlns="http://www.w3.org/2000/svg" xmlns:xlink="http://www.w3.org/1999/xlink">
<g id="graph0" class="graph" transform="scale(1 1) rotate(0) translate(21.6 656.6)">
<title>G</title>
<polygon fill="white" stroke="transparent" points="-21.6,21.6 -21.6,-656.6 321.29,-656.6 321.29,21.6 -21.6,21.6"/>
<g id="clust1" class="cluster">
<title>cluster_sys</title>
<path fill="white" stroke="#8fa3d8" stroke-dasharray="5,2" d="M156,-8C156,-8 282.69,-8 282.69,-8 288.69,-8 294.69,-14 294.69,-20 294.69,-20 294.69,-615 294.69,-615 294.69,-621 288.69,-627 282.69,-627 282.69,-627 156,-627 156,-627 150,-627 144,-621 144,-615 144,-615 144,-20 144,-20 144,-14 150,-8 156,-8"/>
<text text-anchor="middle" x="219.34" y="-611.8" font-family="Noto Sans CJK SC" font-size="14.00">InsightPilot 系统边界</text>
</g>
<!-- user -->
<g id="node1" class="node">
<title>user</title>
<text text-anchor="middle" x="58" y="-336.3" font-family="Noto Sans CJK SC" font-size="14.00">普通用户</text>
</g>
<!-- u1 -->
<g id="node3" class="node">
<title>u1</title>
<ellipse fill="#f4f7ff" stroke="#536cb8" cx="219.34" cy="-102" rx="43.8" ry="18"/>
<text text-anchor="middle" x="219.34" y="-99.2" font-family="Noto Sans CJK SC" font-size="11.00">注册与登录</text>
</g>
<!-- user&#45;&gt;u1 -->
<g id="edge1" class="edge">
<title>user&#45;&gt;u1</title>
<path fill="none" stroke="#5e72ac" d="M61.98,-321.74C69.23,-282.79 91.21,-190.63 144,-136 152.16,-127.55 162.82,-121.02 173.5,-116.03"/>
<polygon fill="#5e72ac" stroke="#5e72ac" points="175.01,-119.19 182.83,-112.05 172.26,-112.76 175.01,-119.19"/>
</g>
<!-- u2 -->
<g id="node4" class="node">
<title>u2</title>
<ellipse fill="#f4f7ff" stroke="#536cb8" cx="219.34" cy="-442" rx="64.19" ry="18"/>
<text text-anchor="middle" x="219.34" y="-439.2" font-family="Noto Sans CJK SC" font-size="11.00">上传和管理数据集</text>
</g>
<!-- user&#45;&gt;u2 -->
<g id="edge2" class="edge">
<title>user&#45;&gt;u2</title>
<path fill="none" stroke="#5e72ac" d="M78.9,-358.27C95.49,-372.9 120.18,-393.34 144,-408 152.79,-413.41 162.59,-418.5 172.11,-423"/>
<polygon fill="#5e72ac" stroke="#5e72ac" points="170.95,-426.31 181.5,-427.3 173.87,-419.95 170.95,-426.31"/>
</g>
<!-- u3 -->
<g id="node5" class="node">
<title>u3</title>
<ellipse fill="#f4f7ff" stroke="#536cb8" cx="219.34" cy="-374" rx="50.52" ry="18"/>
<text text-anchor="middle" x="219.34" y="-371.2" font-family="Noto Sans CJK SC" font-size="11.00">查看质量报告</text>
</g>
<!-- user&#45;&gt;u3 -->
<g id="edge3" class="edge">
<title>user&#45;&gt;u3</title>
<path fill="none" stroke="#5e72ac" d="M95.16,-347.72C115.95,-352.15 142.46,-357.81 165.55,-362.73"/>
<polygon fill="#5e72ac" stroke="#5e72ac" points="165.03,-366.2 175.54,-364.87 166.49,-359.36 165.03,-366.2"/>
</g>
<!-- u4 -->
<g id="node6" class="node">
<title>u4</title>
<ellipse fill="#f4f7ff" stroke="#536cb8" cx="219.34" cy="-306" rx="50.52" ry="18"/>
<text text-anchor="middle" x="219.34" y="-303.2" font-family="Noto Sans CJK SC" font-size="11.00">执行数据清洗</text>
</g>
<!-- user&#45;&gt;u4 -->
<g id="edge4" class="edge">
<title>user&#45;&gt;u4</title>
<path fill="none" stroke="#5e72ac" d="M95.16,-332.28C115.95,-327.85 142.46,-322.19 165.55,-317.27"/>
<polygon fill="#5e72ac" stroke="#5e72ac" points="166.49,-320.64 175.54,-315.13 165.03,-313.8 166.49,-320.64"/>
</g>
<!-- u5 -->
<g id="node7" class="node">
<title>u5</title>
<ellipse fill="#f4f7ff" stroke="#536cb8" cx="219.34" cy="-238" rx="50.52" ry="18"/>
<text text-anchor="middle" x="219.34" y="-235.2" font-family="Noto Sans CJK SC" font-size="11.00">执行统计分析</text>
</g>
<!-- user&#45;&gt;u5 -->
<g id="edge5" class="edge">
<title>user&#45;&gt;u5</title>
<path fill="none" stroke="#5e72ac" d="M78.9,-321.73C95.49,-307.1 120.18,-286.66 144,-272 153.91,-265.9 165.1,-260.22 175.73,-255.32"/>
<polygon fill="#5e72ac" stroke="#5e72ac" points="177.18,-258.5 184.88,-251.22 174.32,-252.11 177.18,-258.5"/>
</g>
<!-- u6 -->
<g id="node8" class="node">
<title>u6</title>
<ellipse fill="#f4f7ff" stroke="#536cb8" cx="219.34" cy="-170" rx="57.25" ry="18"/>
<text text-anchor="middle" x="219.34" y="-167.2" font-family="Noto Sans CJK SC" font-size="11.00">生成可视化图表</text>
</g>
<!-- user&#45;&gt;u6 -->
<g id="edge6" class="edge">
<title>user&#45;&gt;u6</title>
<path fill="none" stroke="#5e72ac" d="M66.25,-321.8C78.43,-293.27 105.5,-237.8 144,-204 151.6,-197.33 160.73,-191.74 169.94,-187.14"/>
<polygon fill="#5e72ac" stroke="#5e72ac" points="171.54,-190.26 179.14,-182.87 168.59,-183.91 171.54,-190.26"/>
</g>
<!-- u7 -->
<g id="node9" class="node">
<title>u7</title>
<ellipse fill="#f4f7ff" stroke="#536cb8" cx="219.34" cy="-578" rx="64.19" ry="18"/>
<text text-anchor="middle" x="219.34" y="-575.2" font-family="Noto Sans CJK SC" font-size="11.00">自然语言询问数据</text>
</g>
<!-- user&#45;&gt;u7 -->
<g id="edge7" class="edge">
<title>user&#45;&gt;u7</title>
<path fill="none" stroke="#5e72ac" d="M61.98,-358.26C69.23,-397.21 91.21,-489.37 144,-544 150.23,-550.45 157.92,-555.79 165.97,-560.17"/>
<polygon fill="#5e72ac" stroke="#5e72ac" points="164.63,-563.41 175.14,-564.72 167.74,-557.14 164.63,-563.41"/>
</g>
<!-- u8 -->
<g id="node10" class="node">
<title>u8</title>
<ellipse fill="#f4f7ff" stroke="#536cb8" cx="219.34" cy="-510" rx="57.25" ry="18"/>
<text text-anchor="middle" x="219.34" y="-507.2" font-family="Noto Sans CJK SC" font-size="11.00">生成与导出报告</text>
</g>
<!-- user&#45;&gt;u8 -->
<g id="edge8" class="edge">
<title>user&#45;&gt;u8</title>
<path fill="none" stroke="#5e72ac" d="M66.25,-358.2C78.43,-386.73 105.5,-442.2 144,-476 151.6,-482.67 160.73,-488.26 169.94,-492.86"/>
<polygon fill="#5e72ac" stroke="#5e72ac" points="168.59,-496.09 179.14,-497.13 171.54,-489.74 168.59,-496.09"/>
</g>
<!-- admin -->
<g id="node2" class="node">
<title>admin</title>
<text text-anchor="middle" x="58" y="-64.3" font-family="Noto Sans CJK SC" font-size="14.00">管理员（扩展）</text>
</g>
<!-- admin&#45;&gt;u1 -->
<g id="edge9" class="edge">
<title>admin&#45;&gt;u1</title>
<path fill="none" stroke="#5e72ac" d="M116.08,-80.18C133.68,-83.93 152.88,-88.03 169.85,-91.65"/>
<polygon fill="#5e72ac" stroke="#5e72ac" points="169.58,-95.17 180.09,-93.84 171.04,-88.33 169.58,-95.17"/>
</g>
<!-- a1 -->
<g id="node11" class="node">
<title>a1</title>
<ellipse fill="#f4f7ff" stroke="#536cb8" cx="219.34" cy="-34" rx="64.19" ry="18"/>
<text text-anchor="middle" x="219.34" y="-31.2" font-family="Noto Sans CJK SC" font-size="11.00">查看系统运行情况</text>
</g>
<!-- admin&#45;&gt;a1 -->
<g id="edge10" class="edge">
<title>admin&#45;&gt;a1</title>
<path fill="none" stroke="#5e72ac" d="M116.08,-55.82C129.66,-52.92 144.19,-49.82 157.92,-46.89"/>
<polygon fill="#5e72ac" stroke="#5e72ac" points="158.7,-50.31 167.75,-44.8 157.24,-43.46 158.7,-50.31"/>
</g>
</g>
</svg>
